<mxfile host="app.diagrams.net" modified="2023-07-07T20:33:31.492Z" agent="Mozilla/5.0 (Windows NT 10.0; Win64; x64) AppleWebKit/537.36 (KHTML, like Gecko) Chrome/114.0.0.0 Safari/537.36" etag="0cOUtVrYEczRYETuZjjw" version="21.5.2" type="device">
  <diagram name="Page-1" id="RxwdBdDK519Wvoag2zy5">
    <mxGraphModel dx="2150" dy="2055" grid="1" gridSize="10" guides="1" tooltips="1" connect="1" arrows="1" fold="1" page="1" pageScale="1" pageWidth="850" pageHeight="1100" math="0" shadow="0">
      <root>
        <mxCell id="0" />
        <mxCell id="1" parent="0" />
        <mxCell id="2rizzgH3MxhOFPeIr2vh-16" value="" style="edgeStyle=orthogonalEdgeStyle;rounded=0;orthogonalLoop=1;jettySize=auto;html=1;" edge="1" parent="1" source="2rizzgH3MxhOFPeIr2vh-2">
          <mxGeometry relative="1" as="geometry">
            <mxPoint x="440" y="-72" as="targetPoint" />
          </mxGeometry>
        </mxCell>
        <mxCell id="2rizzgH3MxhOFPeIr2vh-2" value="Start" style="ellipse;whiteSpace=wrap;html=1;" vertex="1" parent="1">
          <mxGeometry x="380" y="-172" width="120" height="60" as="geometry" />
        </mxCell>
        <mxCell id="2rizzgH3MxhOFPeIr2vh-3" value="End" style="ellipse;whiteSpace=wrap;html=1;" vertex="1" parent="1">
          <mxGeometry x="380" y="1050" width="120" height="60" as="geometry" />
        </mxCell>
        <mxCell id="2rizzgH3MxhOFPeIr2vh-43" value="" style="edgeStyle=orthogonalEdgeStyle;rounded=0;orthogonalLoop=1;jettySize=auto;html=1;" edge="1" parent="1" source="2rizzgH3MxhOFPeIr2vh-4" target="2rizzgH3MxhOFPeIr2vh-5">
          <mxGeometry relative="1" as="geometry" />
        </mxCell>
        <mxCell id="2rizzgH3MxhOFPeIr2vh-4" value="select products and its quantity" style="rounded=1;whiteSpace=wrap;html=1;" vertex="1" parent="1">
          <mxGeometry x="380" y="40" width="120" height="60" as="geometry" />
        </mxCell>
        <mxCell id="2rizzgH3MxhOFPeIr2vh-5" value="determine&lt;br&gt;product-&amp;gt;totalPrice" style="rounded=1;whiteSpace=wrap;html=1;" vertex="1" parent="1">
          <mxGeometry x="380" y="140" width="120" height="60" as="geometry" />
        </mxCell>
        <mxCell id="2rizzgH3MxhOFPeIr2vh-55" value="" style="edgeStyle=orthogonalEdgeStyle;rounded=0;orthogonalLoop=1;jettySize=auto;html=1;" edge="1" parent="1" source="2rizzgH3MxhOFPeIr2vh-6" target="2rizzgH3MxhOFPeIr2vh-54">
          <mxGeometry relative="1" as="geometry" />
        </mxCell>
        <mxCell id="2rizzgH3MxhOFPeIr2vh-6" value="product-&amp;gt;quantity=&lt;br&gt;product-&amp;gt;maxQuantity&lt;br&gt;- product-&amp;gt;quantity" style="rounded=1;whiteSpace=wrap;html=1;" vertex="1" parent="1">
          <mxGeometry x="120" y="820" width="200" height="60" as="geometry" />
        </mxCell>
        <mxCell id="2rizzgH3MxhOFPeIr2vh-35" style="edgeStyle=orthogonalEdgeStyle;rounded=0;orthogonalLoop=1;jettySize=auto;html=1;exitX=1;exitY=0.5;exitDx=0;exitDy=0;entryX=1;entryY=0.5;entryDx=0;entryDy=0;" edge="1" parent="1" source="2rizzgH3MxhOFPeIr2vh-7" target="2rizzgH3MxhOFPeIr2vh-21">
          <mxGeometry relative="1" as="geometry" />
        </mxCell>
        <mxCell id="2rizzgH3MxhOFPeIr2vh-7" value="Display message:&lt;br&gt;&quot;Transaction Failed,&lt;br&gt;Try again&quot;" style="rounded=1;whiteSpace=wrap;html=1;" vertex="1" parent="1">
          <mxGeometry x="520" y="710" width="120" height="60" as="geometry" />
        </mxCell>
        <mxCell id="2rizzgH3MxhOFPeIr2vh-33" value="" style="edgeStyle=orthogonalEdgeStyle;rounded=0;orthogonalLoop=1;jettySize=auto;html=1;" edge="1" parent="1" source="2rizzgH3MxhOFPeIr2vh-8" target="2rizzgH3MxhOFPeIr2vh-32">
          <mxGeometry relative="1" as="geometry" />
        </mxCell>
        <mxCell id="2rizzgH3MxhOFPeIr2vh-8" value="Enter payment details or tap&amp;nbsp;" style="rounded=1;whiteSpace=wrap;html=1;" vertex="1" parent="1">
          <mxGeometry x="380" y="600" width="120" height="60" as="geometry" />
        </mxCell>
        <mxCell id="2rizzgH3MxhOFPeIr2vh-42" value="" style="edgeStyle=orthogonalEdgeStyle;rounded=0;orthogonalLoop=1;jettySize=auto;html=1;" edge="1" parent="1" source="2rizzgH3MxhOFPeIr2vh-11">
          <mxGeometry relative="1" as="geometry">
            <mxPoint x="440" y="40" as="targetPoint" />
          </mxGeometry>
        </mxCell>
        <mxCell id="2rizzgH3MxhOFPeIr2vh-11" value="Initialize:&lt;br&gt;product-&amp;gt;quantity=0&lt;br&gt;product-&amp;gt;maxQuantity=X&lt;br&gt;product-&amp;gt;minQuantity=Y" style="rounded=1;whiteSpace=wrap;html=1;" vertex="1" parent="1">
          <mxGeometry x="360" y="-72" width="160" height="60" as="geometry" />
        </mxCell>
        <mxCell id="2rizzgH3MxhOFPeIr2vh-30" style="edgeStyle=orthogonalEdgeStyle;rounded=0;orthogonalLoop=1;jettySize=auto;html=1;exitX=0.5;exitY=0;exitDx=0;exitDy=0;entryX=1;entryY=0.5;entryDx=0;entryDy=0;" edge="1" parent="1" source="2rizzgH3MxhOFPeIr2vh-12" target="2rizzgH3MxhOFPeIr2vh-21">
          <mxGeometry relative="1" as="geometry" />
        </mxCell>
        <mxCell id="2rizzgH3MxhOFPeIr2vh-12" value="Display message:&lt;br&gt;&quot;NO CASH ACCEPTED&quot;" style="rounded=1;whiteSpace=wrap;html=1;" vertex="1" parent="1">
          <mxGeometry x="520" y="490" width="120" height="60" as="geometry" />
        </mxCell>
        <mxCell id="2rizzgH3MxhOFPeIr2vh-18" value="" style="edgeStyle=orthogonalEdgeStyle;rounded=0;orthogonalLoop=1;jettySize=auto;html=1;" edge="1" parent="1">
          <mxGeometry relative="1" as="geometry">
            <mxPoint x="440" y="200" as="sourcePoint" />
            <mxPoint x="440" y="240" as="targetPoint" />
          </mxGeometry>
        </mxCell>
        <mxCell id="2rizzgH3MxhOFPeIr2vh-17" value="Data Structures:&lt;br&gt;&lt;br&gt;product structure&lt;br&gt;totalPrice&lt;br&gt;quantity&lt;br&gt;maxQuantity&lt;br&gt;minQuantity" style="text;html=1;align=center;verticalAlign=middle;resizable=0;points=[];autosize=1;strokeColor=none;fillColor=none;" vertex="1" parent="1">
          <mxGeometry x="610" y="-160" width="110" height="110" as="geometry" />
        </mxCell>
        <mxCell id="2rizzgH3MxhOFPeIr2vh-23" value="" style="edgeStyle=orthogonalEdgeStyle;rounded=0;orthogonalLoop=1;jettySize=auto;html=1;" edge="1" parent="1" source="2rizzgH3MxhOFPeIr2vh-21" target="2rizzgH3MxhOFPeIr2vh-22">
          <mxGeometry relative="1" as="geometry" />
        </mxCell>
        <mxCell id="2rizzgH3MxhOFPeIr2vh-29" value="" style="edgeStyle=orthogonalEdgeStyle;rounded=0;orthogonalLoop=1;jettySize=auto;html=1;" edge="1" parent="1" source="2rizzgH3MxhOFPeIr2vh-21">
          <mxGeometry relative="1" as="geometry">
            <mxPoint x="350" y="285" as="targetPoint" />
          </mxGeometry>
        </mxCell>
        <mxCell id="2rizzgH3MxhOFPeIr2vh-21" value="initialize &lt;br&gt;payment &lt;br&gt;session?" style="rhombus;whiteSpace=wrap;html=1;" vertex="1" parent="1">
          <mxGeometry x="390" y="240" width="100" height="90" as="geometry" />
        </mxCell>
        <mxCell id="2rizzgH3MxhOFPeIr2vh-25" value="" style="edgeStyle=orthogonalEdgeStyle;rounded=0;orthogonalLoop=1;jettySize=auto;html=1;" edge="1" parent="1" source="2rizzgH3MxhOFPeIr2vh-22">
          <mxGeometry relative="1" as="geometry">
            <mxPoint x="440" y="480" as="targetPoint" />
          </mxGeometry>
        </mxCell>
        <mxCell id="2rizzgH3MxhOFPeIr2vh-22" value="take User Input for method selection:&lt;br&gt;(credit/debit card, NFC, phone application)" style="rounded=1;whiteSpace=wrap;html=1;" vertex="1" parent="1">
          <mxGeometry x="370" y="370" width="140" height="70" as="geometry" />
        </mxCell>
        <mxCell id="2rizzgH3MxhOFPeIr2vh-27" value="" style="edgeStyle=orthogonalEdgeStyle;rounded=0;orthogonalLoop=1;jettySize=auto;html=1;" edge="1" parent="1" source="2rizzgH3MxhOFPeIr2vh-26" target="2rizzgH3MxhOFPeIr2vh-12">
          <mxGeometry relative="1" as="geometry" />
        </mxCell>
        <mxCell id="2rizzgH3MxhOFPeIr2vh-31" value="" style="edgeStyle=orthogonalEdgeStyle;rounded=0;orthogonalLoop=1;jettySize=auto;html=1;" edge="1" parent="1" source="2rizzgH3MxhOFPeIr2vh-26" target="2rizzgH3MxhOFPeIr2vh-8">
          <mxGeometry relative="1" as="geometry" />
        </mxCell>
        <mxCell id="2rizzgH3MxhOFPeIr2vh-26" value="cashless?" style="rhombus;whiteSpace=wrap;html=1;" vertex="1" parent="1">
          <mxGeometry x="400" y="480" width="80" height="80" as="geometry" />
        </mxCell>
        <mxCell id="2rizzgH3MxhOFPeIr2vh-28" value="yes" style="text;html=1;align=center;verticalAlign=middle;resizable=0;points=[];autosize=1;strokeColor=none;fillColor=none;" vertex="1" parent="1">
          <mxGeometry x="440" y="330" width="40" height="30" as="geometry" />
        </mxCell>
        <mxCell id="2rizzgH3MxhOFPeIr2vh-34" value="" style="edgeStyle=orthogonalEdgeStyle;rounded=0;orthogonalLoop=1;jettySize=auto;html=1;" edge="1" parent="1" source="2rizzgH3MxhOFPeIr2vh-32" target="2rizzgH3MxhOFPeIr2vh-7">
          <mxGeometry relative="1" as="geometry" />
        </mxCell>
        <mxCell id="2rizzgH3MxhOFPeIr2vh-41" value="" style="edgeStyle=orthogonalEdgeStyle;rounded=0;orthogonalLoop=1;jettySize=auto;html=1;" edge="1" parent="1" source="2rizzgH3MxhOFPeIr2vh-32" target="2rizzgH3MxhOFPeIr2vh-6">
          <mxGeometry relative="1" as="geometry">
            <Array as="points">
              <mxPoint x="440" y="800" />
              <mxPoint x="220" y="800" />
            </Array>
          </mxGeometry>
        </mxCell>
        <mxCell id="2rizzgH3MxhOFPeIr2vh-32" value="payment Approved?" style="rhombus;whiteSpace=wrap;html=1;" vertex="1" parent="1">
          <mxGeometry x="400" y="700" width="80" height="80" as="geometry" />
        </mxCell>
        <mxCell id="2rizzgH3MxhOFPeIr2vh-36" value="no" style="text;html=1;align=center;verticalAlign=middle;resizable=0;points=[];autosize=1;strokeColor=none;fillColor=none;" vertex="1" parent="1">
          <mxGeometry x="480" y="490" width="40" height="30" as="geometry" />
        </mxCell>
        <mxCell id="2rizzgH3MxhOFPeIr2vh-39" value="yes" style="text;html=1;align=center;verticalAlign=middle;resizable=0;points=[];autosize=1;strokeColor=none;fillColor=none;" vertex="1" parent="1">
          <mxGeometry x="440" y="770" width="40" height="30" as="geometry" />
        </mxCell>
        <mxCell id="2rizzgH3MxhOFPeIr2vh-40" value="no" style="text;html=1;align=center;verticalAlign=middle;resizable=0;points=[];autosize=1;strokeColor=none;fillColor=none;" vertex="1" parent="1">
          <mxGeometry x="480" y="710" width="40" height="30" as="geometry" />
        </mxCell>
        <mxCell id="2rizzgH3MxhOFPeIr2vh-46" style="edgeStyle=orthogonalEdgeStyle;rounded=0;orthogonalLoop=1;jettySize=auto;html=1;exitX=0.5;exitY=0;exitDx=0;exitDy=0;entryX=0;entryY=0.5;entryDx=0;entryDy=0;" edge="1" parent="1" source="2rizzgH3MxhOFPeIr2vh-45" target="2rizzgH3MxhOFPeIr2vh-4">
          <mxGeometry relative="1" as="geometry" />
        </mxCell>
        <mxCell id="2rizzgH3MxhOFPeIr2vh-45" value="ADD or REMOVE product?" style="rhombus;whiteSpace=wrap;html=1;" vertex="1" parent="1">
          <mxGeometry x="250" y="240" width="100" height="100" as="geometry" />
        </mxCell>
        <mxCell id="2rizzgH3MxhOFPeIr2vh-47" value="no" style="text;html=1;align=center;verticalAlign=middle;resizable=0;points=[];autosize=1;strokeColor=none;fillColor=none;" vertex="1" parent="1">
          <mxGeometry x="350" y="260" width="40" height="30" as="geometry" />
        </mxCell>
        <mxCell id="2rizzgH3MxhOFPeIr2vh-48" value="" style="endArrow=classic;html=1;rounded=0;entryX=0;entryY=0.5;entryDx=0;entryDy=0;exitX=0.5;exitY=1;exitDx=0;exitDy=0;" edge="1" parent="1" source="2rizzgH3MxhOFPeIr2vh-45" target="2rizzgH3MxhOFPeIr2vh-21">
          <mxGeometry width="50" height="50" relative="1" as="geometry">
            <mxPoint x="305" y="340" as="sourcePoint" />
            <mxPoint x="350" y="340" as="targetPoint" />
            <Array as="points">
              <mxPoint x="360" y="340" />
            </Array>
          </mxGeometry>
        </mxCell>
        <mxCell id="2rizzgH3MxhOFPeIr2vh-49" value="no" style="text;html=1;align=center;verticalAlign=middle;resizable=0;points=[];autosize=1;strokeColor=none;fillColor=none;" vertex="1" parent="1">
          <mxGeometry x="320" y="310" width="40" height="30" as="geometry" />
        </mxCell>
        <mxCell id="2rizzgH3MxhOFPeIr2vh-50" value="yes" style="text;html=1;align=center;verticalAlign=middle;resizable=0;points=[];autosize=1;strokeColor=none;fillColor=none;" vertex="1" parent="1">
          <mxGeometry x="300" y="210" width="40" height="30" as="geometry" />
        </mxCell>
        <mxCell id="2rizzgH3MxhOFPeIr2vh-51" value="yes" style="text;html=1;align=center;verticalAlign=middle;resizable=0;points=[];autosize=1;strokeColor=none;fillColor=none;" vertex="1" parent="1">
          <mxGeometry x="440" y="560" width="40" height="30" as="geometry" />
        </mxCell>
        <mxCell id="2rizzgH3MxhOFPeIr2vh-61" value="" style="edgeStyle=orthogonalEdgeStyle;rounded=0;orthogonalLoop=1;jettySize=auto;html=1;" edge="1" parent="1" source="2rizzgH3MxhOFPeIr2vh-52" target="2rizzgH3MxhOFPeIr2vh-57">
          <mxGeometry relative="1" as="geometry" />
        </mxCell>
        <mxCell id="2rizzgH3MxhOFPeIr2vh-52" value="Dispense required product" style="rounded=1;whiteSpace=wrap;html=1;" vertex="1" parent="1">
          <mxGeometry x="590" y="820" width="120" height="60" as="geometry" />
        </mxCell>
        <mxCell id="2rizzgH3MxhOFPeIr2vh-53" value="" style="endArrow=classic;html=1;rounded=0;entryX=0.5;entryY=0;entryDx=0;entryDy=0;" edge="1" parent="1" target="2rizzgH3MxhOFPeIr2vh-52">
          <mxGeometry width="50" height="50" relative="1" as="geometry">
            <mxPoint x="440" y="780" as="sourcePoint" />
            <mxPoint x="490" y="730" as="targetPoint" />
            <Array as="points">
              <mxPoint x="440" y="800" />
              <mxPoint x="650" y="800" />
            </Array>
          </mxGeometry>
        </mxCell>
        <mxCell id="2rizzgH3MxhOFPeIr2vh-58" value="" style="edgeStyle=orthogonalEdgeStyle;rounded=0;orthogonalLoop=1;jettySize=auto;html=1;" edge="1" parent="1" source="2rizzgH3MxhOFPeIr2vh-54" target="2rizzgH3MxhOFPeIr2vh-56">
          <mxGeometry relative="1" as="geometry" />
        </mxCell>
        <mxCell id="2rizzgH3MxhOFPeIr2vh-54" value="if &lt;br&gt;product-&amp;gt;quantity&lt;br&gt;&amp;lt;=&lt;br&gt;product-&amp;gt;minQuantity" style="rhombus;whiteSpace=wrap;html=1;" vertex="1" parent="1">
          <mxGeometry x="160" y="920" width="120" height="120" as="geometry" />
        </mxCell>
        <mxCell id="2rizzgH3MxhOFPeIr2vh-59" value="" style="edgeStyle=orthogonalEdgeStyle;rounded=0;orthogonalLoop=1;jettySize=auto;html=1;" edge="1" parent="1" source="2rizzgH3MxhOFPeIr2vh-56" target="2rizzgH3MxhOFPeIr2vh-57">
          <mxGeometry relative="1" as="geometry" />
        </mxCell>
        <mxCell id="2rizzgH3MxhOFPeIr2vh-56" value="Order MORE&amp;nbsp;&lt;br&gt;product" style="rounded=1;whiteSpace=wrap;html=1;" vertex="1" parent="1">
          <mxGeometry x="380" y="950" width="120" height="60" as="geometry" />
        </mxCell>
        <mxCell id="2rizzgH3MxhOFPeIr2vh-60" style="edgeStyle=orthogonalEdgeStyle;rounded=0;orthogonalLoop=1;jettySize=auto;html=1;exitX=0.5;exitY=1;exitDx=0;exitDy=0;" edge="1" parent="1" source="2rizzgH3MxhOFPeIr2vh-57" target="2rizzgH3MxhOFPeIr2vh-3">
          <mxGeometry relative="1" as="geometry">
            <Array as="points">
              <mxPoint x="650" y="1080" />
            </Array>
          </mxGeometry>
        </mxCell>
        <mxCell id="2rizzgH3MxhOFPeIr2vh-57" value="update product structure" style="rounded=1;whiteSpace=wrap;html=1;" vertex="1" parent="1">
          <mxGeometry x="590" y="950" width="120" height="60" as="geometry" />
        </mxCell>
        <mxCell id="2rizzgH3MxhOFPeIr2vh-68" value="" style="edgeStyle=orthogonalEdgeStyle;rounded=0;orthogonalLoop=1;jettySize=auto;html=1;" edge="1" parent="1" source="2rizzgH3MxhOFPeIr2vh-63" target="2rizzgH3MxhOFPeIr2vh-64">
          <mxGeometry relative="1" as="geometry" />
        </mxCell>
        <mxCell id="2rizzgH3MxhOFPeIr2vh-63" value="Start" style="ellipse;whiteSpace=wrap;html=1;" vertex="1" parent="1">
          <mxGeometry x="810" y="-172" width="120" height="60" as="geometry" />
        </mxCell>
        <mxCell id="2rizzgH3MxhOFPeIr2vh-69" value="" style="edgeStyle=orthogonalEdgeStyle;rounded=0;orthogonalLoop=1;jettySize=auto;html=1;" edge="1" parent="1" source="2rizzgH3MxhOFPeIr2vh-64" target="2rizzgH3MxhOFPeIr2vh-65">
          <mxGeometry relative="1" as="geometry" />
        </mxCell>
        <mxCell id="2rizzgH3MxhOFPeIr2vh-73" style="edgeStyle=orthogonalEdgeStyle;rounded=0;orthogonalLoop=1;jettySize=auto;html=1;exitX=1;exitY=0.5;exitDx=0;exitDy=0;entryX=0;entryY=0.5;entryDx=0;entryDy=0;" edge="1" parent="1" source="2rizzgH3MxhOFPeIr2vh-64" target="2rizzgH3MxhOFPeIr2vh-72">
          <mxGeometry relative="1" as="geometry" />
        </mxCell>
        <mxCell id="2rizzgH3MxhOFPeIr2vh-64" value="Display message:&lt;br&gt;&quot;Press Cancel to EXIT session&quot;" style="rounded=1;whiteSpace=wrap;html=1;" vertex="1" parent="1">
          <mxGeometry x="810" y="-72" width="120" height="60" as="geometry" />
        </mxCell>
        <mxCell id="2rizzgH3MxhOFPeIr2vh-70" value="" style="edgeStyle=orthogonalEdgeStyle;rounded=0;orthogonalLoop=1;jettySize=auto;html=1;" edge="1" parent="1" source="2rizzgH3MxhOFPeIr2vh-65" target="2rizzgH3MxhOFPeIr2vh-66">
          <mxGeometry relative="1" as="geometry" />
        </mxCell>
        <mxCell id="2rizzgH3MxhOFPeIr2vh-74" value="" style="edgeStyle=orthogonalEdgeStyle;rounded=0;orthogonalLoop=1;jettySize=auto;html=1;" edge="1" parent="1" source="2rizzgH3MxhOFPeIr2vh-65" target="2rizzgH3MxhOFPeIr2vh-72">
          <mxGeometry relative="1" as="geometry" />
        </mxCell>
        <mxCell id="2rizzgH3MxhOFPeIr2vh-65" value="payment session begins" style="rounded=1;whiteSpace=wrap;html=1;" vertex="1" parent="1">
          <mxGeometry x="810" y="28" width="120" height="60" as="geometry" />
        </mxCell>
        <mxCell id="2rizzgH3MxhOFPeIr2vh-71" value="" style="edgeStyle=orthogonalEdgeStyle;rounded=0;orthogonalLoop=1;jettySize=auto;html=1;" edge="1" parent="1" source="2rizzgH3MxhOFPeIr2vh-66" target="2rizzgH3MxhOFPeIr2vh-67">
          <mxGeometry relative="1" as="geometry" />
        </mxCell>
        <mxCell id="2rizzgH3MxhOFPeIr2vh-75" style="edgeStyle=orthogonalEdgeStyle;rounded=0;orthogonalLoop=1;jettySize=auto;html=1;entryX=0;entryY=0.5;entryDx=0;entryDy=0;" edge="1" parent="1" source="2rizzgH3MxhOFPeIr2vh-66" target="2rizzgH3MxhOFPeIr2vh-72">
          <mxGeometry relative="1" as="geometry" />
        </mxCell>
        <mxCell id="2rizzgH3MxhOFPeIr2vh-66" value="selecting payment method" style="rounded=1;whiteSpace=wrap;html=1;" vertex="1" parent="1">
          <mxGeometry x="810" y="128" width="120" height="60" as="geometry" />
        </mxCell>
        <mxCell id="2rizzgH3MxhOFPeIr2vh-76" style="edgeStyle=orthogonalEdgeStyle;rounded=0;orthogonalLoop=1;jettySize=auto;html=1;exitX=1;exitY=0.5;exitDx=0;exitDy=0;entryX=0;entryY=0.5;entryDx=0;entryDy=0;" edge="1" parent="1" source="2rizzgH3MxhOFPeIr2vh-67" target="2rizzgH3MxhOFPeIr2vh-72">
          <mxGeometry relative="1" as="geometry" />
        </mxCell>
        <mxCell id="2rizzgH3MxhOFPeIr2vh-67" value="Enter payment details" style="rounded=1;whiteSpace=wrap;html=1;" vertex="1" parent="1">
          <mxGeometry x="810" y="228" width="120" height="60" as="geometry" />
        </mxCell>
        <mxCell id="2rizzgH3MxhOFPeIr2vh-79" value="" style="edgeStyle=orthogonalEdgeStyle;rounded=0;orthogonalLoop=1;jettySize=auto;html=1;" edge="1" parent="1" source="2rizzgH3MxhOFPeIr2vh-72" target="2rizzgH3MxhOFPeIr2vh-78">
          <mxGeometry relative="1" as="geometry" />
        </mxCell>
        <mxCell id="2rizzgH3MxhOFPeIr2vh-72" value="User Press Cancel?" style="rhombus;whiteSpace=wrap;html=1;" vertex="1" parent="1">
          <mxGeometry x="1020" y="18" width="80" height="80" as="geometry" />
        </mxCell>
        <mxCell id="2rizzgH3MxhOFPeIr2vh-83" value="" style="edgeStyle=orthogonalEdgeStyle;rounded=0;orthogonalLoop=1;jettySize=auto;html=1;" edge="1" parent="1" source="2rizzgH3MxhOFPeIr2vh-77" target="2rizzgH3MxhOFPeIr2vh-81">
          <mxGeometry relative="1" as="geometry" />
        </mxCell>
        <mxCell id="2rizzgH3MxhOFPeIr2vh-77" value="upgrade product structure" style="rounded=1;whiteSpace=wrap;html=1;" vertex="1" parent="1">
          <mxGeometry x="1000" y="238" width="120" height="60" as="geometry" />
        </mxCell>
        <mxCell id="2rizzgH3MxhOFPeIr2vh-80" value="" style="edgeStyle=orthogonalEdgeStyle;rounded=0;orthogonalLoop=1;jettySize=auto;html=1;" edge="1" parent="1" source="2rizzgH3MxhOFPeIr2vh-78" target="2rizzgH3MxhOFPeIr2vh-77">
          <mxGeometry relative="1" as="geometry" />
        </mxCell>
        <mxCell id="2rizzgH3MxhOFPeIr2vh-78" value="session terminated:&lt;br&gt;RESET Values of ALL variable" style="rounded=1;whiteSpace=wrap;html=1;" vertex="1" parent="1">
          <mxGeometry x="1000" y="138" width="120" height="60" as="geometry" />
        </mxCell>
        <mxCell id="2rizzgH3MxhOFPeIr2vh-81" value="End" style="ellipse;whiteSpace=wrap;html=1;" vertex="1" parent="1">
          <mxGeometry x="1000" y="338" width="120" height="50" as="geometry" />
        </mxCell>
      </root>
    </mxGraphModel>
  </diagram>
</mxfile>
